<svg xmlns="http://www.w3.org/2000/svg" viewBox="0 0 100 100">
  <defs>
    <linearGradient id="bgGrad" x1="0" y1="0" x2="1" y2="1">
      <stop offset="0%" stop-color="#0f172a"/>
      <stop offset="100%" stop-color="#1e293b"/>
    </linearGradient>
    <linearGradient id="accentLine" x1="0" y1="0" x2="1" y2="0">
      <stop offset="0%" stop-color="#22c55e"/>
      <stop offset="100%" stop-color="#4ade80"/>
    </linearGradient>
  </defs>
  <!-- Rounded square background -->
  <rect width="100" height="100" rx="22" fill="url(#bgGrad)"/>
  <!-- Green accent stripe at top -->
  <rect x="18" y="0" width="64" height="5" rx="2.5" fill="url(#accentLine)"/>
  <!-- Taxi car icon -->
  <g transform="translate(23, 32)">
    <!-- Car body -->
    <rect x="0" y="14" width="54" height="20" rx="5" fill="white"/>
    <!-- Windshield -->
    <path d="M14 14 L18 4 L36 4 L40 14Z" fill="white"/>
    <!-- Side windows -->
    <rect x="20" y="6" width="14" height="6" rx="1.5" fill="#0f172a" opacity="0.8"/>
    <!-- Rear window -->
    <rect x="8" y="8" width="10" height="4" rx="1" fill="#0f172a" opacity="0.6"/>
    <!-- Front window -->
    <rect x="36" y="8" width="10" height="4" rx="1" fill="#0f172a" opacity="0.6"/>
    <!-- Wheels -->
    <circle cx="14" cy="36" r="8" fill="white"/>
    <circle cx="14" cy="36" r="4" fill="#0f172a"/>
    <circle cx="40" cy="36" r="8" fill="white"/>
    <circle cx="40" cy="36" r="4" fill="#0f172a"/>
    <!-- Roof light -->
    <rect x="23" y="-2" width="8" height="6" rx="2" fill="#22c55e"/>
    <rect x="25" y="-1" width="4" height="4" rx="1" fill="#4ade80"/>
  </g>
</svg>
