<svg xmlns="http://www.w3.org/2000/svg" viewBox="0 0 100 100">
  <defs>
    <linearGradient id="g" x1="0" y1="0" x2="1" y2="1">
      <stop offset="0%" stop-color="#0f172a"/>
      <stop offset="100%" stop-color="#1e293b"/>
    </linearGradient>
    <linearGradient id="g2" x1="0" y1="0" x2="1" y2="1">
      <stop offset="0%" stop-color="#22c55e"/>
      <stop offset="100%" stop-color="#4ade80"/>
    </linearGradient>
  </defs>
  <rect width="100" height="100" rx="22" fill="url(#g)"/>
  <!-- Car body -->
  <g transform="translate(16, 22)">
    <rect x="0" y="20" width="68" height="26" rx="7" fill="white"/>
    <path d="M17 20 L22 6 L46 6 L51 20Z" fill="white"/>
    <!-- Windshield -->
    <rect x="24" y="8" width="20" height="10" rx="2" fill="#0f172a" opacity="0.85"/>
    <!-- Side glass -->
    <rect x="10" y="14" width="10" height="6" rx="2" fill="#0f172a" opacity="0.4"/>
    <rect x="48" y="14" width="10" height="6" rx="2" fill="#0f172a" opacity="0.4"/>
    <!-- Roof sign -->
    <rect x="30" y="0" width="8" height="5" rx="2" fill="url(#g2)"/>
    <!-- Wheels -->
    <circle cx="16" cy="48" r="10" fill="white"/>
    <circle cx="16" cy="48" r="6" fill="#0f172a"/>
    <circle cx="16" cy="48" r="3" fill="#22c55e"/>
    <circle cx="52" cy="48" r="10" fill="white"/>
    <circle cx="52" cy="48" r="6" fill="#0f172a"/>
    <circle cx="52" cy="48" r="3" fill="#22c55e"/>
    <!-- Headlight -->
    <circle cx="66" cy="28" r="3" fill="#fbbf24"/>
  </g>
</svg>